<svg width="98" height="27" viewBox="0 0 98 27" fill="none" xmlns="http://www.w3.org/2000/svg">
<path fill-rule="evenodd" clip-rule="evenodd" d="M67.9227 25.224V19.88L69.8427 17.768L74.2907 25.224H79.7307L73.4267 14.792L79.7627 7.752H73.8427L67.9227 14.056V1H63.1227V25.224H67.9227ZM44.2036 24.424C42.7956 25.2133 41.2276 25.608 39.4996 25.608C37.7716 25.608 36.1982 25.2133 34.7796 24.424C33.3609 23.6347 32.2302 22.552 31.3876 21.176C30.5449 19.8 30.1236 18.2373 30.1236 16.488C30.1236 14.7173 30.5449 13.1493 31.3876 11.784C32.2302 10.4187 33.3609 9.34133 34.7796 8.552C36.1982 7.76267 37.7716 7.368 39.4996 7.368C41.2276 7.368 42.7956 7.76267 44.2036 8.552C45.6116 9.34133 46.7369 10.4187 47.5796 11.784C48.4222 13.1493 48.8436 14.7173 48.8436 16.488C48.8436 18.2373 48.4222 19.8 47.5796 21.176C46.7369 22.552 45.6116 23.6347 44.2036 24.424ZM15.24 14.024L11.176 25.224H7.016L1 7.752H5.96L9.352 17.896L13.16 7.752H17.32L21.096 17.896L24.488 7.752H29.48L23.432 25.224H19.272L15.24 14.024ZM39.4996 21.288C38.1982 21.288 37.1369 20.84 36.3156 19.944C35.4942 19.048 35.0836 17.896 35.0836 16.488C35.0836 15.1013 35.4942 13.9547 36.3156 13.048C37.1369 12.1413 38.1982 11.688 39.4996 11.688C40.8009 11.688 41.8569 12.1413 42.6676 13.048C43.4782 13.9547 43.8836 15.1013 43.8836 16.488C43.8836 17.896 43.4782 19.048 42.6676 19.944C41.8569 20.84 40.8009 21.288 39.4996 21.288ZM56.0151 15.816V25.224H51.2151V7.752H55.6951V10.376C56.1431 9.288 56.7778 8.54667 57.5991 8.152C58.4204 7.75733 59.3644 7.56 60.4311 7.56H61.4551V11.72H59.9511C58.7778 11.72 57.8284 12.0773 57.1031 12.792C56.3778 13.5067 56.0151 14.5147 56.0151 15.816ZM84.2462 1.384V4.904H82.3262V1.384H84.2462ZM84.2462 25.224V8.232H82.3262V25.224H84.2462ZM95.9618 25.384C95.6631 25.4053 95.4284 25.416 95.2578 25.416C93.8284 25.416 92.7351 25.016 91.9778 24.216C91.2204 23.416 90.8418 22.248 90.8418 20.712V10.056H87.6418V8.232H88.8578C89.4764 8.232 89.9618 8.04 90.3138 7.656C90.6658 7.272 90.8418 6.74933 90.8418 6.088V4.264H92.7618V8.232H96.4738V10.056H92.7618V20.712C92.7618 21.1813 92.8311 21.64 92.9698 22.088C93.1084 22.536 93.3804 22.8987 93.7858 23.176C94.1911 23.4533 94.7778 23.592 95.5458 23.592C95.7164 23.592 95.9244 23.5813 96.1698 23.56C96.4151 23.5387 96.6124 23.5173 96.7618 23.496V25.256C96.5271 25.32 96.2604 25.3627 95.9618 25.384Z" fill="white"/>
<path d="M67.9227 19.88L67.5527 19.5437L67.4227 19.6867V19.88H67.9227ZM67.9227 25.224V25.724H68.4227V25.224H67.9227ZM69.8427 17.768L70.2721 17.5118L69.9265 16.9325L69.4727 17.4317L69.8427 17.768ZM74.2907 25.224L73.8613 25.4802L74.0067 25.724H74.2907V25.224ZM79.7307 25.224V25.724H80.617L80.1586 24.9654L79.7307 25.224ZM73.4267 14.792L73.055 14.4575L72.8069 14.7332L72.9987 15.0506L73.4267 14.792ZM79.7627 7.752L80.1343 8.08648L80.8853 7.252H79.7627V7.752ZM73.8427 7.752V7.252H73.6263L73.4782 7.40972L73.8427 7.752ZM67.9227 14.056H67.4227V15.3188L68.2871 14.3983L67.9227 14.056ZM67.9227 1H68.4227V0.5H67.9227V1ZM63.1227 1V0.5H62.6227V1H63.1227ZM63.1227 25.224H62.6227V25.724H63.1227V25.224ZM31.3876 21.176L31.814 20.9149L31.3876 21.176ZM31.3876 11.784L31.813 12.0466L31.3876 11.784ZM47.5796 11.784L47.1541 12.0466L47.5796 11.784ZM47.5796 21.176L47.1532 20.9149L47.5796 21.176ZM11.176 25.224V25.724H11.5265L11.646 25.3945L11.176 25.224ZM15.24 14.024L15.7104 13.8546L15.2419 12.553L14.77 13.8535L15.24 14.024ZM7.016 25.224L6.54324 25.3868L6.65935 25.724H7.016V25.224ZM1 7.752V7.252H0.299029L0.52724 7.91478L1 7.752ZM5.96 7.752L6.43419 7.59344L6.32002 7.252H5.96V7.752ZM9.352 17.896L8.87781 18.0546L9.32477 19.3912L9.8201 18.0717L9.352 17.896ZM13.16 7.752V7.252H12.8136L12.6919 7.57628L13.16 7.752ZM17.32 7.752L17.7886 7.57757L17.6674 7.252H17.32V7.752ZM21.096 17.896L20.6274 18.0704L21.1213 19.3971L21.5702 18.0546L21.096 17.896ZM24.488 7.752V7.252H24.128L24.0138 7.59344L24.488 7.752ZM29.48 7.752L29.9525 7.91556L30.1822 7.252H29.48V7.752ZM23.432 25.224V25.724H23.788L23.9045 25.3876L23.432 25.224ZM19.272 25.224L18.8016 25.3934L18.9206 25.724H19.272V25.224ZM36.3156 19.944L35.947 20.2819L36.3156 19.944ZM36.3156 13.048L35.945 12.7123H35.945L36.3156 13.048ZM42.6676 13.048L42.2948 13.3813V13.3813L42.6676 13.048ZM42.6676 19.944L42.2968 19.6085L42.6676 19.944ZM56.0151 25.224V25.724H56.5151V25.224H56.0151ZM51.2151 25.224H50.7151V25.724H51.2151V25.224ZM51.2151 7.752V7.252H50.7151V7.752H51.2151ZM55.6951 7.752H56.1951V7.252H55.6951V7.752ZM55.6951 10.376H55.1951L56.1574 10.5664L55.6951 10.376ZM57.5991 8.152L57.3826 7.70133V7.70133L57.5991 8.152ZM61.4551 7.56H61.9551V7.06H61.4551V7.56ZM61.4551 11.72V12.22H61.9551V11.72H61.4551ZM84.2462 4.904V5.404H84.7462V4.904H84.2462ZM84.2462 1.384H84.7462V0.884H84.2462V1.384ZM82.3262 4.904H81.8262V5.404H82.3262V4.904ZM82.3262 1.384V0.884H81.8262V1.384H82.3262ZM84.2462 8.232H84.7462V7.732H84.2462V8.232ZM84.2462 25.224V25.724H84.7462V25.224H84.2462ZM82.3262 8.232V7.732H81.8262V8.232H82.3262ZM82.3262 25.224H81.8262V25.724H82.3262V25.224ZM90.8418 10.056H91.3418V9.556H90.8418V10.056ZM87.6418 10.056H87.1418V10.556H87.6418V10.056ZM87.6418 8.232V7.732H87.1418V8.232H87.6418ZM90.3138 7.656L89.9452 7.31814V7.31814L90.3138 7.656ZM90.8418 4.264V3.764H90.3418V4.264H90.8418ZM92.7618 4.264H93.2618V3.764H92.7618V4.264ZM92.7618 8.232H92.2618V8.732H92.7618V8.232ZM96.4738 8.232H96.9738V7.732H96.4738V8.232ZM96.4738 10.056V10.556H96.9738V10.056H96.4738ZM92.7618 10.056V9.556H92.2618V10.056H92.7618ZM92.9698 22.088L93.4474 21.9402L93.4474 21.9402L92.9698 22.088ZM93.7858 23.176L93.5034 23.5887L93.5034 23.5887L93.7858 23.176ZM96.7618 23.496H97.2618V22.9195L96.6911 23.001L96.7618 23.496ZM96.7618 25.256L96.8933 25.7384L97.2618 25.6379V25.256H96.7618ZM67.4227 19.88V25.224H68.4227V19.88H67.4227ZM69.4727 17.4317L67.5527 19.5437L68.2926 20.2163L70.2126 18.1043L69.4727 17.4317ZM74.7201 24.9678L70.2721 17.5118L69.4133 18.0242L73.8613 25.4802L74.7201 24.9678ZM79.7307 24.724H74.2907V25.724H79.7307V24.724ZM72.9987 15.0506L79.3027 25.4826L80.1586 24.9654L73.8546 14.5334L72.9987 15.0506ZM79.391 7.41752L73.055 14.4575L73.7983 15.1265L80.1343 8.08648L79.391 7.41752ZM73.8427 8.252H79.7627V7.252H73.8427V8.252ZM68.2871 14.3983L74.2071 8.09428L73.4782 7.40972L67.5582 13.7137L68.2871 14.3983ZM67.4227 1V14.056H68.4227V1H67.4227ZM63.1227 1.5H67.9227V0.5H63.1227V1.5ZM63.6227 25.224V1H62.6227V25.224H63.6227ZM67.9227 24.724H63.1227V25.724H67.9227V24.724ZM39.4996 26.108C41.3069 26.108 42.9601 25.6943 44.4481 24.8601L43.9591 23.9879C42.631 24.7324 41.1482 25.108 39.4996 25.108V26.108ZM34.5365 24.8609C36.0343 25.6943 37.6921 26.108 39.4996 26.108V25.108C37.851 25.108 36.3622 24.7324 35.0227 23.9871L34.5365 24.8609ZM30.9612 21.4371C31.8491 22.887 33.0431 24.03 34.5365 24.8609L35.0227 23.9871C33.6787 23.2393 32.6114 22.217 31.814 20.9149L30.9612 21.4371ZM29.6236 16.488C29.6236 18.3215 30.0663 19.9759 30.9612 21.4371L31.814 20.9149C31.0235 19.6241 30.6236 18.1532 30.6236 16.488H29.6236ZM30.9621 11.5214C30.0657 12.9737 29.6236 14.6345 29.6236 16.488H30.6236C30.6236 14.8002 31.024 13.325 31.813 12.0466L30.9621 11.5214ZM34.5365 8.11508C33.044 8.94545 31.8502 10.0824 30.9621 11.5214L31.813 12.0466C32.6103 10.7549 33.6778 9.73721 35.0227 8.98892L34.5365 8.11508ZM39.4996 6.868C37.6921 6.868 36.0343 7.28171 34.5365 8.11508L35.0227 8.98892C36.3622 8.24362 37.851 7.868 39.4996 7.868V6.868ZM44.4481 8.11586C42.9601 7.28171 41.3069 6.868 39.4996 6.868V7.868C41.1482 7.868 42.631 8.24362 43.9591 8.98814L44.4481 8.11586ZM48.005 11.5214C47.1175 10.0833 45.9297 8.94646 44.4481 8.11586L43.9591 8.98814C45.2934 9.7362 46.3563 10.754 47.1541 12.0466L48.005 11.5214ZM49.3436 16.488C49.3436 14.6345 48.9014 12.9737 48.005 11.5214L47.1541 12.0466C47.9431 13.325 48.3436 14.8002 48.3436 16.488H49.3436ZM48.006 21.4371C48.9008 19.9759 49.3436 18.3215 49.3436 16.488H48.3436C48.3436 18.1532 47.9437 19.6241 47.1532 20.9149L48.006 21.4371ZM44.4481 24.8601C45.9306 24.029 47.1186 22.8861 48.006 21.4371L47.1532 20.9149C46.3552 22.2179 45.2925 23.2403 43.9591 23.9879L44.4481 24.8601ZM11.646 25.3945L15.71 14.1945L14.77 13.8535L10.706 25.0535L11.646 25.3945ZM7.016 25.724H11.176V24.724H7.016V25.724ZM0.52724 7.91478L6.54324 25.3868L7.48876 25.0612L1.47276 7.58922L0.52724 7.91478ZM5.96 7.252H1V8.252H5.96V7.252ZM9.82619 17.7374L6.43419 7.59344L5.48581 7.91056L8.87781 18.0546L9.82619 17.7374ZM12.6919 7.57628L8.8839 17.7203L9.8201 18.0717L13.6281 7.92772L12.6919 7.57628ZM17.32 7.252H13.16V8.252H17.32V7.252ZM21.5646 17.7216L17.7886 7.57757L16.8514 7.92643L20.6274 18.0704L21.5646 17.7216ZM24.0138 7.59344L20.6218 17.7374L21.5702 18.0546L24.9622 7.91056L24.0138 7.59344ZM29.48 7.252H24.488V8.252H29.48V7.252ZM23.9045 25.3876L29.9525 7.91556L29.0075 7.58844L22.9595 25.0604L23.9045 25.3876ZM19.272 25.724H23.432V24.724H19.272V25.724ZM14.7696 14.1934L18.8016 25.3934L19.7424 25.0546L15.7104 13.8546L14.7696 14.1934ZM35.947 20.2819C36.8703 21.2891 38.0692 21.788 39.4996 21.788V20.788C38.3273 20.788 37.4035 20.3909 36.6841 19.6061L35.947 20.2819ZM34.5836 16.488C34.5836 17.9999 35.0278 19.2792 35.947 20.2819L36.6841 19.6061C35.9606 18.8168 35.5836 17.7921 35.5836 16.488H34.5836ZM35.945 12.7123C35.0292 13.7233 34.5836 14.995 34.5836 16.488H35.5836C35.5836 15.2076 35.9593 14.186 36.6861 13.3837L35.945 12.7123ZM39.4996 11.188C38.0672 11.188 36.8677 11.6937 35.945 12.7123L36.6861 13.3837C37.4061 12.5889 38.3293 12.188 39.4996 12.188V11.188ZM43.0403 12.7147C42.1275 11.6939 40.932 11.188 39.4996 11.188V12.188C40.6698 12.188 41.5862 12.5888 42.2948 13.3813L43.0403 12.7147ZM44.3836 16.488C44.3836 14.9968 43.9444 13.7259 43.0403 12.7147L42.2948 13.3813C43.012 14.1834 43.3836 15.2059 43.3836 16.488H44.3836ZM43.0383 20.2795C43.9457 19.2765 44.3836 17.9982 44.3836 16.488H43.3836C43.3836 17.7938 43.0107 18.8195 42.2968 19.6085L43.0383 20.2795ZM39.4996 21.788C40.93 21.788 42.125 21.289 43.0383 20.2795L42.2968 19.6085C41.5888 20.391 40.6718 20.788 39.4996 20.788V21.788ZM56.5151 25.224V15.816H55.5151V25.224H56.5151ZM51.2151 25.724H56.0151V24.724H51.2151V25.724ZM50.7151 7.752V25.224H51.7151V7.752H50.7151ZM55.6951 7.252H51.2151V8.252H55.6951V7.252ZM56.1951 10.376V7.752H55.1951V10.376H56.1951ZM57.3826 7.70133C56.4206 8.16355 55.7137 9.01768 55.2328 10.1856L56.1574 10.5664C56.5725 9.55832 57.1349 8.92978 57.8157 8.60267L57.3826 7.70133ZM60.4311 7.06C59.3022 7.06 58.2821 7.2691 57.3826 7.70133L57.8157 8.60267C58.5588 8.24557 59.4267 8.06 60.4311 8.06V7.06ZM61.4551 7.06H60.4311V8.06H61.4551V7.06ZM61.9551 11.72V7.56H60.9551V11.72H61.9551ZM59.9511 12.22H61.4551V11.22H59.9511V12.22ZM57.454 13.1482C58.0715 12.5398 58.8875 12.22 59.9511 12.22V11.22C58.6681 11.22 57.5854 11.6149 56.7522 12.4358L57.454 13.1482ZM56.5151 15.816C56.5151 14.6094 56.8487 13.7446 57.454 13.1482L56.7522 12.4358C55.9068 13.2688 55.5151 14.4199 55.5151 15.816H56.5151ZM84.7462 4.904V1.384H83.7462V4.904H84.7462ZM82.3262 5.404H84.2462V4.404H82.3262V5.404ZM81.8262 1.384V4.904H82.8262V1.384H81.8262ZM84.2462 0.884H82.3262V1.884H84.2462V0.884ZM83.7462 8.232V25.224H84.7462V8.232H83.7462ZM82.3262 8.732H84.2462V7.732H82.3262V8.732ZM82.8262 25.224V8.232H81.8262V25.224H82.8262ZM84.2462 24.724H82.3262V25.724H84.2462V24.724ZM95.2578 25.916C95.446 25.916 95.6943 25.9044 95.9974 25.8827L95.9262 24.8853C95.632 24.9063 95.4109 24.916 95.2578 24.916V25.916ZM91.6147 24.5597C92.4924 25.4869 93.7341 25.916 95.2578 25.916V24.916C93.9228 24.916 92.9778 24.5451 92.3409 23.8723L91.6147 24.5597ZM90.3418 20.712C90.3418 22.325 90.7398 23.6356 91.6147 24.5597L92.3409 23.8723C91.7011 23.1964 91.3418 22.171 91.3418 20.712H90.3418ZM90.3418 10.056V20.712H91.3418V10.056H90.3418ZM87.6418 10.556H90.8418V9.556H87.6418V10.556ZM87.1418 8.232V10.056H88.1418V8.232H87.1418ZM88.8578 7.732H87.6418V8.732H88.8578V7.732ZM89.9452 7.31814C89.7057 7.57945 89.3649 7.732 88.8578 7.732V8.732C89.588 8.732 90.2179 8.50055 90.6824 7.99386L89.9452 7.31814ZM90.3418 6.088C90.3418 6.65921 90.1917 7.04924 89.9452 7.31814L90.6824 7.99387C91.1399 7.49476 91.3418 6.83946 91.3418 6.088H90.3418ZM90.3418 4.264V6.088H91.3418V4.264H90.3418ZM92.7618 3.764H90.8418V4.764H92.7618V3.764ZM93.2618 8.232V4.264H92.2618V8.232H93.2618ZM96.4738 7.732H92.7618V8.732H96.4738V7.732ZM96.9738 10.056V8.232H95.9738V10.056H96.9738ZM92.7618 10.556H96.4738V9.556H92.7618V10.556ZM93.2618 20.712V10.056H92.2618V20.712H93.2618ZM93.4474 21.9402C93.3236 21.5401 93.2618 21.1313 93.2618 20.712H92.2618C92.2618 21.2314 92.3386 21.7399 92.4921 22.2358L93.4474 21.9402ZM94.0681 22.7633C93.7512 22.5465 93.5511 22.275 93.4474 21.9402L92.4921 22.2358C92.6658 22.797 93.0097 23.2509 93.5034 23.5887L94.0681 22.7633ZM95.5458 23.092C94.826 23.092 94.3555 22.96 94.0681 22.7633L93.5034 23.5887C94.0267 23.9467 94.7296 24.092 95.5458 24.092V23.092ZM96.1265 23.0619C95.8898 23.0825 95.6972 23.092 95.5458 23.092V24.092C95.7357 24.092 95.9591 24.0802 96.2131 24.0581L96.1265 23.0619ZM96.6911 23.001C96.5547 23.0205 96.3676 23.0409 96.1265 23.0619L96.2131 24.0581C96.4626 24.0364 96.6702 24.0142 96.8325 23.991L96.6911 23.001ZM97.2618 25.256V23.496H96.2618V25.256H97.2618ZM95.9974 25.8827C96.3214 25.8596 96.6211 25.8126 96.8933 25.7384L96.6302 24.7736C96.4331 24.8274 96.1995 24.8657 95.9262 24.8853L95.9974 25.8827Z" fill="black"/>
</svg>
